<svg width="318.81025390625px" height="134px" xmlns="http://www.w3.org/2000/svg" viewBox="90.594873046875 8 318.81025390625 134" style="background: rgba(255, 255, 255, 0);" preserveAspectRatio="xMidYMid"><defs><filter id="editing-marble" x="-100%" y="-100%" width="300%" height="300%"><feFlood flood-color="#d88c51" result="flood-1"></feFlood><feComposite operator="in" in="flood-1" in2="SourceAlpha" result="flood-2"></feComposite><feTurbulence baseFrequency="0.07" type="fractalNoise" numOctaves="1" seed="2" result="bs-1"></feTurbulence><feGaussianBlur stdDeviation="1" in="flood-2" result="bs-2"></feGaussianBlur><feDisplacementMap scale="110" in="bs-2" in2="bs-1" result="bs-3"></feDisplacementMap><feComposite operator="in" in="bs-3" in2="SourceAlpha" result="texture"></feComposite><feMerge><feMergeNode in="SourceGraphic"></feMergeNode><feMergeNode in="texture"></feMergeNode></feMerge></filter></defs><g filter="url(#editing-marble)"><g transform="translate(141.9888458251953, 106.96500015258789)"><path d="M20.16 4.32L20.16 4.32L20.16 4.32Q20.85 4.32 21.46 3.72L21.46 3.72L21.46 3.72Q22.06 3.11 22.58 1.84L22.58 1.84L22.58 1.84Q22.64 1.32 23.27 1.32L23.27 1.32L23.27 1.32Q23.90 1.32 23.76 1.84L23.76 1.84L23.76 1.84Q23.62 2.36 23.30 3.11L23.30 3.11L23.30 3.11Q22.98 3.86 21.97 5.10L21.97 5.10L21.97 5.10Q20.97 6.34 19.93 6.34L19.93 6.34L19.93 6.34Q17.63 6.34 16.36 3.46L16.36 3.46L16.36 3.46Q15.03 0.58 15.03-3.66L15.03-3.66L15.03-3.66Q15.03-7.89 15.67-12.38L15.67-12.38L15.15-12.38L15.15-12.38Q8.18-0.23 4.44-0.23L4.44-0.23L4.44-0.23Q0-0.23 0-7.00L0-7.00L0-7.00Q0-13.77 2.88-20.51L2.88-20.51L2.88-20.51Q6.05-27.94 8.47-27.94L8.47-27.94L8.47-27.94Q9.50-27.94 9.50-26.67L9.50-26.67L9.50-26.67Q7.08-20.28 5.36-14.23L5.36-14.23L5.36-14.23Q3.63-8.18 3.63-5.21L3.63-5.21L3.63-5.21Q3.63-2.25 5.01-2.25L5.01-2.25L5.01-2.25Q5.99-2.25 7.92-4.61L7.92-4.61L7.92-4.61Q9.85-6.97 11.87-10.37L11.87-10.37L11.87-10.37Q16.19-17.68 18.46-22.81L18.46-22.81L18.46-22.81Q20.74-27.94 23.16-27.94L23.16-27.94L23.16-27.94Q24.31-27.94 24.31-26.67L24.31-26.67L24.31-26.67Q20.62-19.35 19.07-9.22L19.07-9.22L19.07-9.22Q18.43-5.18 18.43-1.32L18.43-1.32L18.43-1.32Q18.43 4.32 20.16 4.32ZM45.68-16.53L45.68-16.53L45.68-16.53Q43.49-16.53 43.49-21.31L43.49-21.31L43.49-21.31Q43.49-24.02 44.52-26.38L44.52-26.38L44.52-26.38Q40.61-22.98 35.77-13.74L35.77-13.74L35.77-13.74Q30.93-4.49 30.93-1.67L30.93-1.67L30.93-1.67Q30.93-0.98 30.01-0.98L30.01-0.98L30.01-0.98Q28.34-0.98 28.34-5.53L28.34-5.53L28.34-5.53Q28.34-14.11 30.07-21.08L30.07-21.08L30.07-21.08Q31.80-28.05 34.27-28.05L34.27-28.05L34.27-28.05Q35.37-28.05 35.37-26.78L35.37-26.78L35.37-26.78Q32.72-18.37 31.56-9.56L31.56-9.56L31.97-9.56L31.97-9.56Q36.63-20.33 42.28-26.38L42.28-26.38L42.28-26.38Q45.50-29.84 48.15-29.84L48.15-29.84L48.15-29.84Q48.73-29.84 49.10-29.49L49.10-29.49L49.10-29.49Q49.48-29.15 49.48-28.63L49.48-28.63L49.48-28.63Q49.08-28.22 48.50-27.42L48.50-27.42L48.50-27.42Q47.92-26.61 46.94-23.59L46.94-23.59L46.94-23.59Q45.96-20.56 45.96-16.99L45.96-16.99L45.96-16.99Q45.96-16.53 45.68-16.53ZM48.79 19.35L48.79 19.35L48.79 19.35Q44.29 19.35 44.29 15.03L44.29 15.03L44.29 15.03Q44.29 11.23 48.18 6.08L48.18 6.08L48.18 6.08Q52.07 0.92 57.95-1.32L57.95-1.32L57.95-1.32Q58.23-1.44 58.52-1.18L58.52-1.18L58.52-1.18Q58.81-0.92 58.81-0.60L58.81-0.60L58.81-0.60Q58.81-0.29 58.46-0.12L58.46-0.12L58.46-0.12Q52.53 2.07 48.50 7.95L48.50 7.95L48.50 7.95Q45.79 11.98 45.79 14.57L45.79 14.57L45.79 14.57Q45.79 17.16 47.81 17.22L47.81 17.22L47.81 17.22Q52.59 17.22 58.23 10.66L58.23 10.66L58.23 10.66Q63.01 5.13 64.68-0.40L64.68-0.40L64.68-0.40Q65.26-2.30 65.26-3.57L65.26-3.57L65.26-3.57Q65.26-6.28 62.73-6.28L62.73-6.28L62.73-6.28Q60.77-6.28 57.95-4.98L57.95-4.98L57.95-4.98Q55.12-3.69 54.32-3.69L54.32-3.69L54.32-3.69Q52.99-3.69 52.65-5.64L52.65-5.64L52.53-6.34L52.53-6.34Q56.79-6.34 61.17-12.21L61.17-12.21L61.17-12.21Q64.86-17.28 65.66-22.06L65.66-22.06L65.66-22.06Q65.78-22.92 65.78-23.62L65.78-23.62L65.78-23.62Q65.78-26.38 63.53-26.44L63.53-26.44L63.53-26.44Q61.23-26.44 59.01-24.68L59.01-24.68L59.01-24.68Q56.79-22.92 55.38-20.65L55.38-20.65L55.38-20.65Q53.97-18.37 53.11-16.53L53.11-16.53L53.11-16.53Q52.24-14.69 52.24-14.28L52.24-14.28L52.24-14.28Q52.24-13.88 51.70-13.74L51.70-13.74L51.70-13.74Q51.15-13.59 50.60-13.88L50.60-13.88L50.60-13.88Q50.05-14.17 50.05-14.83L50.05-14.83L50.05-14.83Q50.05-15.49 51.15-17.54L51.15-17.54L51.15-17.54Q52.24-19.58 54-21.97L54-21.97L54-21.97Q55.76-24.36 58.44-26.21L58.44-26.21L58.44-26.21Q61.11-28.05 63.73-28.05L63.73-28.05L63.73-28.05Q66.36-28.05 67.80-26.32L67.80-26.32L67.80-26.32Q69.24-24.60 69.24-21.83L69.24-21.83L69.24-21.83Q69.24-14.40 61.63-7.72L61.63-7.72L61.63-7.72Q62.32-7.83 62.73-7.83L62.73-7.83L62.73-7.83Q68.14-7.83 68.14-1.84L68.14-1.84L68.14-1.84Q68.14 2.48 64.92 8.01L64.92 8.01L64.92 8.01Q60.94 14.75 55.18 17.74L55.18 17.74L55.18 17.74Q51.96 19.35 48.79 19.35ZM78.28 0L78.28 0L78.28 0Q73.56 0 73.56-7.43L73.56-7.43L73.56-7.43Q73.56-11.87 75.74-17.16L75.74-17.16L75.74-17.16Q78.80-24.60 83.75-27.30L83.75-27.30L83.75-27.30Q85.88-28.45 87.72-28.45L87.72-28.45L87.72-28.45Q89.57-28.45 90.63-27.65L90.63-27.65L90.63-27.65Q91.70-26.84 91.99-26.04L91.99-26.04L92.33-25.29L92.33-25.29Q92.16-24.31 91.35-24.31L91.35-24.31L91.35-24.31Q90.43-24.31 90.29-24.74L90.29-24.74L90.29-24.74Q90.14-25.17 89.97-25.49L89.97-25.49L89.97-25.49Q89.80-25.80 89.16-26.35L89.16-26.35L89.16-26.35Q88.53-26.90 87.72-26.90L87.72-26.90L87.72-26.90Q83.98-26.90 80.93-20.16L80.93-20.16L80.93-20.16Q77.47-12.38 77.47-5.53L77.47-5.53L77.47-5.53Q77.47-2.07 78.85-2.07L78.85-2.07L78.85-2.07Q79.95-2.07 81.94-4.52L81.94-4.52L81.94-4.52Q83.92-6.97 86.11-10.66L86.11-10.66L86.11-10.66Q89.91-16.99 92.28-21.66L92.28-21.66L92.28-21.66Q94.23-25.80 96.31-25.80L96.31-25.80L96.31-25.80Q97.40-25.80 97.40-24.48L97.40-24.48L97.40-24.48Q96.88-23.39 96.08-21.37L96.08-21.37L96.08-21.37Q95.27-19.35 93.95-13.36L93.95-13.36L93.95-13.36Q92.62-7.37 92.62-1.44L92.62-1.44L92.62-1.44Q92.62 4.49 94.41 4.49L94.41 4.49L94.41 4.49Q95.10 4.49 95.67 3.89L95.67 3.89L95.67 3.89Q96.25 3.28 96.71 2.07L96.71 2.07L96.71 2.07Q96.88 1.44 97.52 1.44L97.52 1.44L97.52 1.44Q97.75 1.44 97.86 1.61L97.86 1.61L97.86 1.61Q97.98 1.79 97.86 2.19L97.86 2.19L97.86 2.19Q97.75 2.59 97.46 3.31L97.46 3.31L97.46 3.31Q97.17 4.03 96.22 5.24L96.22 5.24L96.22 5.24Q95.27 6.45 94.23 6.45L94.23 6.45L94.23 6.45Q91.81 6.45 90.52 3.28L90.52 3.28L90.52 3.28Q89.22 0.12 89.22-4.20L89.22-4.20L89.22-4.20Q89.22-8.52 89.86-12.50L89.86-12.50L89.28-12.50L89.28-12.50Q81.96 0 78.28 0ZM111.51-16.70L111.51-16.70L111.51-16.70Q108.46-11.17 106.76-6.91L106.76-6.91L106.76-6.91Q105.06-2.65 105.06-1.87L105.06-1.87L105.06-1.87Q105.06-1.09 104.26-1.09L104.26-1.09L104.26-1.09Q102.53-1.09 102.53-5.70L102.53-5.70L102.53-5.70Q102.53-14.86 104.37-24.11L104.37-24.11L104.37-24.11Q106.21-33.35 108.75-38.91L108.75-38.91L108.75-38.91Q111.28-44.47 113.47-44.47L113.47-44.47L113.47-44.47Q114.39-44.47 114.39-43.55L114.39-43.55L114.39-43.55Q111.34-36.81 109.30-28.17L109.30-28.17L109.30-28.17Q107.25-19.53 105.87-9.73L105.87-9.73L106.27-9.73L106.27-9.73Q113.59-27.71 120.61-27.71L120.61-27.71L120.61-27.71Q123.55-27.71 123.55-24.88L123.55-24.88L123.55-24.88Q123.15-23.56 122.52-21.40L122.52-21.40L122.52-21.40Q121.88-19.24 120.84-13.65L120.84-13.65L120.84-13.65Q119.81-8.06 119.81-3.86L119.81-3.86L119.81-3.86Q119.81 2.25 121.59 2.25L121.59 2.25L121.59 2.25Q122.23 2.25 122.86 1.70L122.86 1.70L122.86 1.70Q123.49 1.15 123.72 1.15L123.72 1.15L123.72 1.15Q124.53 1.15 123.67 2.42L123.67 2.42L123.67 2.42Q123.44 2.82 122.66 3.51L122.66 3.51L122.66 3.51Q121.88 4.20 121.13 4.20L121.13 4.20L121.13 4.20Q118.89 4.20 117.65 1.07L117.65 1.07L117.65 1.07Q116.41-2.07 116.41-7.08L116.41-7.08L116.41-7.08Q116.41-15.55 118.94-24.54L118.94-24.54L118.94-24.54Q119.06-25.40 118.25-25.29L118.25-25.29L118.25-25.29Q117.85-25.23 117.45-24.83L117.45-24.83L117.45-24.83Q114.57-22.23 111.51-16.70ZM141.35-7.03L141.35-7.03L141.35-7.03Q141.35-14.11 143.94-24.94L143.94-24.94L143.94-24.94Q144.12-25.52 143.60-25.46L143.60-25.46L143.60-25.46Q143.19-25.40 142.85-25.11L142.85-25.11L142.85-25.11Q140.31-22.98 137.26-17.22L137.26-17.22L137.26-17.22Q134.21-11.46 132.36-6.71L132.36-6.71L132.36-6.71Q130.52-1.96 130.52-1.15L130.52-1.15L130.52-1.15Q130.52-0.46 129.66-0.46L129.66-0.46L129.66-0.46Q127.93-0.46 127.93-5.01L127.93-5.01L127.93-5.01Q127.93-13.65 129.66-20.59L129.66-20.59L129.66-20.59Q131.39-27.53 133.86-27.53L133.86-27.53L133.86-27.53Q134.96-27.53 134.96-26.32L134.96-26.32L134.96-26.32Q132.31-17.97 131.16-9.16L131.16-9.16L131.67-9.16L131.67-9.16Q139.28-28.17 145.67-28.17L145.67-28.17L145.67-28.17Q148.44-28.17 148.44-25.46L148.44-25.46L148.44-25.46Q145.73-17.40 144.52-9.56L144.52-9.56L144.98-9.56L144.98-9.56Q146.88-13.59 148.81-16.91L148.81-16.91L148.81-16.91Q150.74-20.22 153.33-23.07L153.33-23.07L153.33-23.07Q155.92-25.92 158.00-25.92L158.00-25.92L158.00-25.92Q160.76-25.92 160.76-23.27L160.76-23.27L160.76-23.27Q157.77-13.31 157.77-3.86L157.77-3.86L157.77-3.86Q157.77 2.25 159.61 2.25L159.61 2.25L159.61 2.25Q160.24 2.25 160.88 1.70L160.88 1.70L160.88 1.70Q161.51 1.15 161.74 1.15L161.74 1.15L161.74 1.15Q162.55 1.15 161.68 2.42L161.68 2.42L161.68 2.42Q161.45 2.82 160.68 3.51L160.68 3.51L160.68 3.51Q159.90 4.20 159.15 4.20L159.15 4.20L159.15 4.20Q156.90 4.20 155.66 1.07L155.66 1.07L155.66 1.07Q154.43-2.07 154.43-7.08L154.43-7.08L154.43-7.08Q154.43-15.90 156.27-22.58L156.27-22.58L156.27-22.58Q156.38-22.98 155.98-22.98L155.98-22.98L155.98-22.98Q155.64-22.92 155.29-22.64L155.29-22.64L155.29-22.64Q152.01-19.81 147.97-12.18L147.97-12.18L147.97-12.18Q143.94-4.55 143.94-3.17L143.94-3.17L143.94-3.17Q143.94-2.48 143.02-2.48L143.02-2.48L143.02-2.48Q141.35-2.48 141.35-7.03ZM180.58-27.94L180.58-27.94L180.58-27.94Q184.95-27.94 184.95-22.81L184.95-22.81L184.95-22.81Q184.95-19.87 183.00-16.65L183.00-16.65L183.00-16.65Q179.65-11.29 174.12-11.29L174.12-11.29L174.12-11.29Q173.26-11.29 172.68-11.58L172.68-11.58L172.68-11.58Q172.11-11.87 171.82-12.44L171.82-12.44L171.82-12.44Q175.91-12.44 179.31-17.16L179.31-17.16L179.31-17.16Q182.07-20.97 182.07-24.13L182.07-24.13L182.07-24.13Q182.07-26.50 180.17-26.50L180.17-26.50L180.17-26.50Q176.37-26.50 173.09-20.56L173.09-20.56L173.09-20.56Q169.57-14.11 169.57-7.32L169.57-7.32L169.57-7.32Q169.57-1.56 172.86-0.40L172.86-0.40L172.86-0.40Q173.49-0.17 174.47-0.17L174.47-0.17L174.47-0.17Q175.45-0.17 176.54-0.66L176.54-0.66L176.54-0.66Q177.64-1.15 178.39-1.84L178.39-1.84L178.39-1.84Q179.88-3.23 180.86-4.90L180.86-4.90L180.86-4.90Q181.09-5.36 181.73-5.36L181.73-5.36L181.73-5.36Q182.76-5.36 182.71-5.01L182.71-5.01L182.71-5.01Q182.53-4.38 181.41-2.88L181.41-2.88L181.41-2.88Q180.29-1.38 179.34-0.49L179.34-0.49L179.34-0.49Q178.39 0.40 176.86 1.12L176.86 1.12L176.86 1.12Q175.33 1.84 173.78 1.84L173.78 1.84L173.78 1.84Q167.67 1.84 166.00-3.92L166.00-3.92L166.00-3.92Q165.48-5.88 165.48-7.95L165.48-7.95L165.48-7.95Q165.48-11.81 167.27-16.36L167.27-16.36L167.27-16.36Q170.09-23.27 175.05-26.32L175.05-26.32L175.05-26.32Q177.75-27.94 180.58-27.94ZM192.79 0L192.79 0L192.79 0Q187.95 0 187.95-7.43L187.95-7.43L187.95-7.43Q187.95-11.75 190.14-16.93L190.14-16.93L190.14-16.93Q193.13-24.19 198.03-26.78L198.03-26.78L198.03-26.78Q200.16-27.94 201.89-27.94L201.89-27.94L201.89-27.94Q203.62-27.94 204.54-27.33L204.54-27.33L204.54-27.33Q205.46-26.73 205.75-26.09L205.75-26.09L206.04-25.46L206.04-25.46Q205.86-24.48 205.00-24.48L205.00-24.48L205.00-24.48Q204.13-24.48 203.76-25.43L203.76-25.43L203.76-25.43Q203.39-26.38 202.00-26.38L202.00-26.38L202.00-26.38Q198.26-26.38 195.32-19.76L195.32-19.76L195.32-19.76Q191.92-12.27 191.92-5.59L191.92-5.59L191.92-5.59Q191.92-2.07 193.36-2.07L193.36-2.07L193.36-2.07Q194.52-2.07 196.73-4.92L196.73-4.92L196.73-4.92Q198.95-7.78 201.31-11.87L201.31-11.87L201.31-11.87Q204.54-17.51 207.01-22.18L207.01-22.18L207.01-22.18Q209.09-31.16 212.05-37.87L212.05-37.87L212.05-37.87Q215.02-44.58 216.98-44.58L216.98-44.58L216.98-44.58Q217.96-44.58 217.96-43.60L217.96-43.60L217.96-43.60Q216.58-40.61 214.70-35.42L214.70-35.42L214.70-35.42Q212.83-30.24 211.54-25.55L211.54-25.55L211.54-25.55Q210.24-20.85 209.17-14.34L209.17-14.34L209.17-14.34Q208.11-7.83 208.11-2.07L208.11-2.07L208.11-2.07Q208.11 6.51 211.85 6.51L211.85 6.51L211.85 6.51Q213.29 6.51 214.53 5.27L214.53 5.27L214.53 5.27Q215.77 4.03 216.29 2.82L216.29 2.82L216.29 2.82Q216.58 2.19 217.32 2.48L217.32 2.48L217.32 2.48Q217.61 2.59 217.56 2.82L217.56 2.82L217.56 2.82Q217.21 3.57 216.69 4.55L216.69 4.55L216.69 4.55Q216.17 5.53 214.65 6.97L214.65 6.97L214.65 6.97Q213.12 8.41 211.56 8.41L211.56 8.41L211.56 8.41Q204.71 8.41 204.71-4.49L204.71-4.49L204.71-4.49Q204.71-9.04 205.52-14.23L205.52-14.23L204.77-14.23L204.77-14.23Q196.65 0 192.79 0Z" fill="#774023"></path></g></g><style>text {
  font-size: 64px;
  font-family: Arial Black;
  dominant-baseline: central;
  text-anchor: middle;
}</style></svg>