<?xml version="1.0" encoding="utf-8"?>
<!-- Generator: Adobe Illustrator 27.5.0, SVG Export Plug-In . SVG Version: 6.00 Build 0)  -->
<svg version="1.1" xmlns="http://www.w3.org/2000/svg" xmlns:xlink="http://www.w3.org/1999/xlink" x="0px" y="0px"
	 viewBox="0 0 500 500" style="enable-background:new 0 0 500 500;" xml:space="preserve">
<g id="BACKGROUND">
	<rect style="fill:#FFFFFF;" width="500" height="500"/>
</g>
<g id="OBJECTS">
	<g>
		<path style="fill:#F0EEFF;" d="M427.473,373.382c-1.276-0.844-2.647-1.676-3.427-3.043c-1.001-1.753-0.805-3.979-0.418-5.988
			c2.917-15.148,14.354-26.899,18.899-41.585c4.429-14.313,1.564-30.931-7.351-42.638c-7.811-10.256-20.022-17.246-24.076-29.722
			c-2.266-6.973-1.557-14.606-0.547-21.905c2.183-15.767,5.655-31.418,5.891-47.353c0.236-15.936-3.165-32.648-13.064-44.607
			c-10.984-13.269-28.601-18.75-45.185-17.66c-16.584,1.09-32.349,8.001-47.08,16.181c-4.028,2.237-8.256,4.641-12.796,4.467
			c-10.869-0.418-16.006-13.949-23.24-22.593c-7.912-9.453-20.177-13.798-32.069-14.046c-11.892-0.248-23.573,3.171-34.871,7.129
			c-13.808,4.838-27.659,10.72-38.593,20.916c-14.822,13.82-22.693,33.947-32.126,52.36c-9.434,18.413-22.407,36.91-41.424,42.402
			c-5.312,1.534-10.887,1.97-16.094,3.865c-12.805,4.66-21.744,17.896-24.587,31.977c-2.842,14.082-0.347,28.846,4.154,42.43
			c2.848,8.597,6.509,16.964,8.039,25.934c1.53,8.969,0.617,18.955-4.85,25.972c-2.695,3.459-6.319,5.986-9.04,9.422
			c-9.239,11.667-5.416,29.491,0.989,43.142c5.757,12.27,13.211,23.635,22.048,33.617h363.96
			C454.547,420.805,448.152,387.063,427.473,373.382z"/>
		<rect x="64.304" y="442.13" style="fill:#7660E3;" width="385.044" height="10.174"/>
		<g>
			<path style="fill:#FFC55D;" d="M388.093,380.573l-58.333,26.941v34.538H166.39v-34.538l-58.332-26.941
				c0,0,44.981-90.522,67.471-109.078l24.85-4.181l9.257-1.552l38.439-6.466l38.439,6.466l9.257,1.552l24.85,4.181
				C343.112,290.051,388.093,380.573,388.093,380.573z"/>
			<g>
				<path style="fill:#F45D85;" d="M122.18,369.093c0,0-36.721,65.285,26.229,65.285l22.382-48.149L122.18,369.093z"/>
				<path style="fill:#FFFFFF;" d="M111.689,352.777c1.049,1.627,61.201,33.452,61.201,33.452l-6.994,18.885
					c0,0-65.398-24.894-64.698-25.387C101.897,379.235,111.689,352.777,111.689,352.777z"/>
			</g>
			<g>
				<path style="fill:#F45D85;" d="M372.624,369.093c0,0,42.272,65.285-25.226,65.285l-23.385-48.149L372.624,369.093z"/>
				<path style="fill:#FFFFFF;" d="M383.116,352.777c-1.049,1.627-61.201,33.452-61.201,33.452l6.994,18.885
					c0,0,65.398-24.894,64.698-25.387C392.908,379.235,383.116,352.777,383.116,352.777z"/>
			</g>
			<g>
				<g>
					<path style="fill:#FFFFFF;" d="M295.772,267.313c-2.188,22.555-4.3,56.317-47.696,95.015
						c-43.396-38.698-45.509-72.46-47.696-95.015l9.257-1.552l38.439-6.466l38.439,6.466L295.772,267.313z"/>
					<path style="fill:#F45D85;" d="M248.075,352.263c-37.232-34.043-38.838-74.734-38.439-86.502l38.439-6.466l38.439,6.466
						C286.913,277.529,285.308,318.22,248.075,352.263z"/>
				</g>
			</g>
			<rect x="231.359" y="243.195" style="fill:#F45D85;" width="33.433" height="34.273"/>
			<g>
				
					<ellipse transform="matrix(0.7071 -0.7071 0.7071 0.7071 -6.5638 155.2489)" style="fill:#2D2566;" cx="184.12" cy="85.548" rx="37.852" ry="37.852"/>
				<path style="fill:#FF90AA;" d="M306.808,128.957l-7.797,77.894l-0.36,3.661c-1.002,10.007-5.01,19.05-11.06,26.281
					c-8.927,10.623-22.287,17.303-37.097,17.303c-14.811,0-28.17-6.68-37.097-17.303c-6.05-7.232-10.058-16.275-11.06-26.281
					l-0.36-3.661l-7.797-77.894H306.808z"/>
				<g>
					<path style="fill:#413580;" d="M199.853,188.942c0,0,14.709-24.315,12.67-59.99c0,0-3.701-15.289-18.669-15.289
						C178.886,113.663,160.682,162.802,199.853,188.942z"/>
					<path style="fill:#413580;" d="M301.135,188.942c0,0-14.709-24.315-12.67-59.99c0,0,3.701-15.289,18.669-15.289
						C322.102,113.663,340.307,162.802,301.135,188.942z"/>
				</g>
				<path style="fill:#413580;" d="M257.837,156.825c-3.069-4.043-6.138-8.086-9.207-12.128c10.77,2.986,22.051,4.12,33.199,3.337
					c12.372-0.869,25.242-4.49,33.704-13.558c8.462-9.068,10.702-24.618,2.314-33.754c-2.945-3.207-6.845-5.357-10.746-7.291
					c-24.62-12.208-53.598-17.972-79.851-9.853c-10.955,3.388-21.663,9.603-27.203,19.643
					C182.149,135.662,234.662,154.706,257.837,156.825z"/>
				<g>
					<g>
						<path style="fill:#FF90AA;" d="M197.584,176.632c-1.911-2.298-4.293-4.324-7.154-5.189c-2.861-0.865-6.251-0.378-8.35,1.75
							c-1.281,1.299-1.979,3.065-2.409,4.838c-1.342,5.536-0.316,11.458,2.001,16.661c1.914,4.297,4.836,8.326,8.982,10.549
							c4.146,2.223,9.649,2.279,13.289-0.701l-0.256-13.297C203.164,185.911,201.008,180.751,197.584,176.632z"/>
						<path style="fill:#FF90AA;" d="M321.318,178.03c-0.43-1.773-1.128-3.539-2.409-4.838c-2.099-2.128-5.488-2.615-8.349-1.75
							c-2.861,0.865-5.244,2.891-7.154,5.189c-3.425,4.119-5.58,9.279-6.104,14.61l-0.256,13.297
							c3.64,2.98,9.143,2.924,13.289,0.701c4.146-2.223,7.068-6.252,8.982-10.549C321.634,189.488,322.659,183.566,321.318,178.03z"
							/>
					</g>
					<g>
						<g>
							<path style="fill:#2D2566;" d="M197.317,192.095c-1.53-5.574-5.238-10.52-10.361-13.263
								c-0.995-0.533-1.823,0.896-0.881,1.508c3.794,2.464,6.78,6.004,8.431,10.185c-1.481-0.029-3.014,0.748-3.737,2.087
								c-1.423,2.636,0.657,5.727,3.257,6.506c1.333,0.4,1.902-1.681,0.574-2.081c-1.274-0.383-2.631-1.932-1.962-3.334
								c0.492-1.032,2.077-1.414,2.871-0.556C196.254,193.956,197.596,193.112,197.317,192.095z"/>
							<path style="fill:#C6BBFE;" d="M196.396,207.729c0,2.242-1.817,4.059-4.059,4.059c-2.242,0-4.059-1.817-4.059-4.059
								c0-2.242,1.817-4.059,4.059-4.059C194.579,203.67,196.396,205.488,196.396,207.729z"/>
						</g>
						<g>
							<path style="fill:#2D2566;" d="M303.671,192.095c1.53-5.574,5.238-10.52,10.361-13.263c0.995-0.533,1.823,0.896,0.881,1.508
								c-3.794,2.464-6.78,6.004-8.432,10.185c1.481-0.029,3.014,0.748,3.737,2.087c1.423,2.636-0.657,5.727-3.257,6.506
								c-1.333,0.4-1.902-1.681-0.574-2.081c1.274-0.383,2.631-1.932,1.962-3.334c-0.492-1.032-2.077-1.414-2.871-0.556
								C304.734,193.956,303.392,193.112,303.671,192.095z"/>
							<path style="fill:#C6BBFE;" d="M304.592,207.729c0,2.242,1.817,4.059,4.059,4.059c2.242,0,4.059-1.817,4.059-4.059
								c0-2.242-1.817-4.059-4.059-4.059C306.409,203.67,304.592,205.488,304.592,207.729z"/>
						</g>
					</g>
				</g>
				<g>
					<path style="fill:#F45D85;" d="M219.164,223.987c0,5.1-2.222,9.685-5.767,12.807c-6.05-7.232-10.058-16.275-11.06-26.281
						l-0.36-3.661h0.051C211.496,206.851,219.164,214.52,219.164,223.987z"/>
					<path style="fill:#F45D85;" d="M299.011,206.851l-0.36,3.661c-1.002,10.007-5.01,19.05-11.06,26.281
						c-3.545-3.121-5.767-7.707-5.767-12.807c0-9.467,7.669-17.136,17.135-17.136H299.011z"/>
				</g>
				<path style="fill:#2D2566;" d="M257.983,208.4c-2.353-2.386-4.314-5.131-5.808-8.133c-0.758-1.524-1.387-3.101-1.877-4.731
					c-0.429-1.428-0.418-3.392-1.472-4.485c-0.438-0.454-1.367-0.404-1.655,0.213c-0.581,1.244-0.103,2.507,0.231,3.788
					c0.375,1.436,0.862,2.839,1.434,4.208c1.137,2.727,2.65,5.249,4.483,7.564c0.912,1.152,1.969,2.195,3.021,3.218
					c0.54,0.525,1.27,1.128,1.288,1.947c0.019,0.854-0.757,1.743-1.247,2.353c-2.125,2.648-4.636,4.833-7.058,7.186
					c-0.661,0.643,0.199,1.801,0.997,1.292c2.926-1.863,5.564-4.494,7.777-7.147c0.873-1.046,1.767-2.259,1.784-3.685
					C259.9,210.511,258.964,209.395,257.983,208.4z"/>
				<g>
					<path style="fill:#2D2566;" d="M234.443,195.273c0,3.496-1.646,6.33-3.675,6.33s-3.675-2.834-3.675-6.33s1.645-6.33,3.675-6.33
						S234.443,191.777,234.443,195.273z"/>
					<path style="fill:#2D2566;" d="M273.896,195.273c0,3.496-1.646,6.33-3.675,6.33c-2.03,0-3.675-2.834-3.675-6.33
						s1.646-6.33,3.675-6.33C272.25,188.942,273.896,191.777,273.896,195.273z"/>
				</g>
				<g>
					<path style="fill:#413580;" d="M229.894,167.135c1.245-0.586,2.663-1.146,3.96-0.688c0.857,0.303,1.521,1.025,1.907,1.849
						c1.044,2.232,0.095,4.988-1.623,6.755c-1.717,1.767-4.057,2.762-6.329,3.714c-1.655,0.693-3.311,1.386-4.966,2.079
						c-4.401,1.843-7.208-0.719-4.701-4.91C220.59,171.841,225.733,169.091,229.894,167.135z"/>
					<path style="fill:#413580;" d="M271.094,167.135c-1.245-0.586-2.663-1.146-3.96-0.688c-0.857,0.303-1.521,1.025-1.906,1.849
						c-1.044,2.232-0.095,4.988,1.623,6.755c1.717,1.767,4.057,2.762,6.329,3.714c1.655,0.693,3.311,1.386,4.966,2.079
						c4.401,1.843,7.208-0.719,4.701-4.91C280.398,171.841,275.255,169.091,271.094,167.135z"/>
				</g>
				<path style="fill:#F0EEFF;" d="M236.196,227.307c0,0,18.645,2.25,30.349-5.485c0,0-5.052,14.419-15.175,14.995
					C241.248,237.393,236.196,227.307,236.196,227.307z"/>
			</g>
			<g>
				<path style="fill:#413580;" d="M266.433,326.2h-36.715c-2.092,0-3.788-1.696-3.788-3.788v-71.726
					c0-2.092,1.696-3.788,3.788-3.788h36.715c2.092,0,3.788,1.696,3.788,3.788v71.726C270.221,324.504,268.525,326.2,266.433,326.2z
					"/>
				<circle style="fill:#7660E3;" cx="248.075" cy="265.12" r="6.303"/>
				<g>
					<circle style="fill:#2D2566;" cx="232.775" cy="253.517" r="3.422"/>
					<path style="fill:#2D2566;" d="M236.196,261.424c0,1.89-1.532,3.422-3.422,3.422c-1.89,0-3.422-1.532-3.422-3.422
						c0-1.89,1.532-3.422,3.422-3.422C234.664,258.002,236.196,259.534,236.196,261.424z"/>
				</g>
				<path style="fill:#F0EEFF;" d="M241.374,257.47c0,1.11-0.9,2.01-2.01,2.01c-1.11,0-2.01-0.9-2.01-2.01
					c0-1.11,0.9-2.01,2.01-2.01C240.475,255.46,241.374,256.36,241.374,257.47z"/>
			</g>
			<g>
				<g>
					<path style="fill:#FF90AA;" d="M130.802,385.71l87.87-79.697c0,0-0.072-32.238,3.439-34.467
						c3.512-2.23,23.769,11.378,22.391,15.118c-1.378,3.741-11.458-2.37-11.458-2.37s10.791,12.862,8.903,15.475
						c-1.889,2.613-10.834-6.058-10.834-6.058s11.913,14.31,9.275,16.92c-2.638,2.609-9.327-7.549-9.327-7.549
						s5.785,15.816-4.87,21.734l-54.339,95.335c-8.141,14.735-27.547,18.663-40.777,8.254h0
						C117.293,417.563,117.16,396.727,130.802,385.71z"/>
				</g>
				<g>
					<path style="fill:#FF90AA;" d="M365.349,385.71l-87.87-79.697c0,0,0.072-32.238-3.439-34.467
						c-3.512-2.23-23.769,11.378-22.391,15.118c1.378,3.741,11.458-2.37,11.458-2.37s-10.792,12.862-8.903,15.475
						c1.889,2.613,10.835-6.058,10.835-6.058s-11.913,14.31-9.275,16.92c2.638,2.609,9.327-7.549,9.327-7.549
						s-5.785,15.816,4.87,21.734l54.339,95.335c8.141,14.735,27.547,18.663,40.777,8.254l0,0
						C378.857,417.563,378.99,396.727,365.349,385.71z"/>
				</g>
			</g>
		</g>
		<g>
			<g>
				<path style="fill:#D9D5FB;" d="M374.356,326.967l-4.431,17.58l-18.94,93.51h-205.82l-2.58-12.75l-20.69-98.09
					c-2.287-9.316,2.67-12.81,7.43-12.81h237.5C371.585,314.406,376.298,319.338,374.356,326.967z"/>
				<path style="fill:#C6BBFE;" d="M374.205,327.502l-4.28,21.12l-18.94,93.51h-205.82l-2.58-12.75l-20.64-101.88
					c-0.94-4.66,2.62-9.02,7.38-9.02h237.5C371.585,318.482,375.145,322.842,374.205,327.502z"/>
				<polygon style="fill:#D9D5FB;" points="369.925,348.622 350.985,442.132 145.165,442.132 142.585,429.382 				"/>
				<circle style="fill:#FFFFFF;" cx="248.075" cy="384.217" r="18"/>
			</g>
			<rect x="143.747" y="435.317" style="fill:#C6BBFE;" width="208.656" height="6.815"/>
		</g>
		<g>
			<g>
				<path style="fill:#7660E3;" d="M111.33,385.499l-0.222-1.952c-2.414-7.891-1.183-16.479,2.202-23.944
					c3.817-8.418,10.347-15.212,17.646-20.734c4.284-3.241,8.843-6.101,13.497-8.775c0.647-0.372,1.445,0.149,1.162,0.914
					c-1.854,5.026-3.677,10.063-5.501,15.1c-1.757,4.854-3.453,9.747-5.638,14.43c-3.799,8.141-9.347,15.34-16.381,20.948
					c-0.955,0.762-1.935,1.491-2.939,2.188c-0.762,0.529-1.583,1.197-2.44,1.621c-0.034,0.084-0.082,0.16-0.15,0.217
					c-0.586,2.262-1.093,4.544-1.515,6.842c-0.935,5.091-1.466,10.252-1.606,15.425c-0.018,0.676-1.046,0.517-1.037-0.146
					C108.511,400.102,109.524,392.695,111.33,385.499z"/>
				<path style="fill:#413580;" d="M87.219,385.499l0.222-1.952c2.414-7.891,1.183-16.479-2.202-23.944
					c-3.817-8.418-10.347-15.212-17.646-20.734c-4.284-3.241-8.843-6.101-13.497-8.775c-0.647-0.372-1.445,0.149-1.162,0.914
					c1.854,5.026,3.677,10.063,5.501,15.1c1.757,4.854,3.453,9.747,5.638,14.43c3.799,8.141,9.347,15.34,16.381,20.948
					c0.955,0.762,1.935,1.491,2.939,2.188c0.762,0.529,1.583,1.197,2.439,1.621c0.034,0.084,0.082,0.16,0.15,0.217
					c0.586,2.262,1.093,4.544,1.515,6.842c0.935,5.091,1.466,10.252,1.606,15.425c0.018,0.676,1.046,0.517,1.037-0.146
					C90.038,400.102,89.025,392.695,87.219,385.499z"/>
				<path style="fill:#413580;" d="M116.655,350.747c-1.033-10.982-5.758-21.185-11.846-30.253
					c-3.573-5.322-7.604-10.321-11.815-15.148c-0.585-0.671-1.688-0.393-1.667,0.58c0.138,6.391,0.236,12.783,0.335,19.175
					c0.095,6.159,0.105,12.339,0.75,18.472c1.121,10.661,4.581,20.94,10.336,30.002c0.781,1.23,1.603,2.435,2.465,3.611
					c0.654,0.893,1.32,1.966,2.122,2.778c0.005,0.108,0.031,0.212,0.085,0.304c-0.218,2.779-0.534,5.551-0.951,8.308
					c-0.925,6.107-2.332,12.136-4.186,18.027c-0.242,0.77,0.979,0.99,1.226,0.239c2.813-8.537,4.55-17.288,5.311-26.109l1.01-2.116
					C115.621,370.653,117.571,360.485,116.655,350.747z"/>
				<path style="fill:#7660E3;" d="M74.815,314.139c0.983,5.689,1.959,11.379,2.954,17.066c3.049,17.424,5.317,36.869,17.218,50.847
					c-0.02,0.051-0.014,0.269,0.162,0.861c0.472,7.65-0.013,15.356-1.456,22.883c-0.121,0.633,0.842,0.905,0.972,0.268
					c1.572-7.713,2.123-15.593,1.649-23.445c0.099-0.455,0.099-0.455,0.099-0.455c1.834-4.861,2.633-10.042,2.541-15.233
					c-0.357-20.158-12.661-36.913-22.917-53.305C75.614,312.95,74.69,313.415,74.815,314.139z"/>
			</g>
			<path style="fill:#413580;" d="M111.922,407.568c0.244,0.691,1.248,0.236,1.034-0.442c-2.214-7.049-0.264-14.879,1.456-21.834
				c0.762-3.079,1.833-6.056,3.724-8.633c0.14-0.19,0.304-0.361,0.45-0.546c2.551,2.594,5.634,4.572,9.034,5.883
				c3.275,1.263,6.778,1.937,10.282,2.062c4.096,0.145,8.186-0.316,12.276,0.115c7.373,0.776,14.411,3.686,20.216,8.286
				c0.529,0.419,1.389-0.216,1.064-0.841c-3.715-7.151-8.575-13.859-15.122-18.673c-9.968-7.329-23.944-9.623-34.447-2.035
				c-2.487,1.797-4.635,4.099-6.167,6.762c-1.699,2.954-2.511,6.259-3.222,9.562C111.067,393.896,109.578,400.932,111.922,407.568z"
				/>
			<path style="fill:#7660E3;" d="M90.84,390.467c-0.159-2.63-0.396-5.274-1.358-7.751c-0.868-2.233-2.253-4.261-3.958-5.939
				c-7.204-7.085-18.247-6.962-26.794-2.485c-5.614,2.94-10.149,7.539-13.855,12.615c-0.324,0.443,0.265,1.034,0.722,0.773
				c5.017-2.863,10.785-4.278,16.56-4.009c3.203,0.15,6.302,0.986,9.477,1.356c2.716,0.317,5.496,0.209,8.169-0.379
				c2.775-0.611,5.384-1.772,7.656-3.472c0.091,0.16,0.198,0.311,0.283,0.474c1.154,2.209,1.63,4.629,1.855,7.093
				c0.507,5.564,1.089,11.829-1.447,17.003c-0.244,0.498,0.476,0.967,0.745,0.463C91.481,401.37,91.161,395.771,90.84,390.467z"/>
			<path style="fill:#FFC55D;" d="M67.917,408.772c0,3.32,0.63,25.06,16.864,33.36h28.991c17.595-9,16.856-33.79,16.856-33.79
				H67.925C67.925,408.342,67.917,408.492,67.917,408.772z"/>
			
				<rect x="63.909" y="404.069" transform="matrix(-1 -1.224647e-16 1.224647e-16 -1 198.5494 814.6087)" style="fill:#FFFFFF;" width="70.731" height="6.472"/>
		</g>
		<g>
			<g>
				
					<ellipse transform="matrix(0.5191 -0.8547 0.8547 0.5191 -38.811 495.6224)" style="fill:#F45D85;" cx="421.04" cy="282.301" rx="34.175" ry="34.175"/>
				<polyline style="fill:#F45D85;" points="393.309,294.266 380.321,314.221 402.755,306.96 				"/>
			</g>
			<g>
				
					<rect x="399.914" y="268.842" transform="matrix(0.9705 -0.241 0.241 0.9705 -55.4292 110.1825)" style="fill:#C6BBFE;" width="45.705" height="25.743"/>
				<polygon style="fill:#D9D5FB;" points="403.69,299.713 423.001,282.656 448.047,288.699 				"/>
				<path style="fill:#FFFFFF;" d="M397.486,274.728l23.207,12.369c2.234,1.191,5.007,0.502,6.424-1.595l14.726-21.788"/>
			</g>
		</g>
		<g>
			<g>
				<g>
					<g>
						<circle style="fill:#2D2566;" cx="106.832" cy="227.358" r="45.453"/>
					</g>
					<polyline style="fill:#2D2566;" points="141.218,248.122 154.736,276.758 126.482,263.147 					"/>
				</g>
			</g>
			<g>
				<g>
					<path style="fill:#FFFFFF;" d="M76.38,214.763h48.954c1.34,0,2.425-1.086,2.425-2.425c0-1.339-1.086-2.425-2.425-2.425H76.38
						c-1.339,0-2.425,1.086-2.425,2.425C73.955,213.677,75.041,214.763,76.38,214.763z"/>
					<path style="fill:#FFFFFF;" d="M125.335,219.926H76.38c-1.339,0-2.425,1.086-2.425,2.425c0,1.339,1.086,2.425,2.425,2.425
						h48.954c1.34,0,2.425-1.086,2.425-2.425C127.76,221.012,126.674,219.926,125.335,219.926z"/>
					<path style="fill:#FFFFFF;" d="M125.335,229.94H76.38c-1.339,0-2.425,1.086-2.425,2.425c0,1.34,1.086,2.425,2.425,2.425h48.954
						c1.34,0,2.425-1.086,2.425-2.425C127.76,231.026,126.674,229.94,125.335,229.94z"/>
					<path style="fill:#FFFFFF;" d="M125.335,239.954H76.38c-1.339,0-2.425,1.086-2.425,2.425c0,1.339,1.086,2.425,2.425,2.425
						h48.954c1.34,0,2.425-1.086,2.425-2.425C127.76,241.04,126.674,239.954,125.335,239.954z"/>
				</g>
				<g>
					<polygon style="fill:#F45D85;" points="139.709,210.902 133.275,210.902 134.63,235.962 138.355,235.962 					"/>
					<path style="fill:#F45D85;" d="M139.709,240.598c0,1.777-1.44,3.217-3.217,3.217c-1.777,0-3.217-1.44-3.217-3.217
						s1.44-3.217,3.217-3.217C138.269,237.381,139.709,238.821,139.709,240.598z"/>
				</g>
			</g>
		</g>
		<g>
			<g>
				<circle style="fill:#7660E3;" cx="386.92" cy="197.196" r="45.453"/>
				<polyline style="fill:#7660E3;" points="352.535,217.96 339.016,246.595 367.27,232.984 				"/>
			</g>
			<g>
				<path style="fill:#FEFEFE;" d="M405.964,169.75c-0.65,0-1.3-0.009-1.949,0.002c-1.271,0.021-2.118,0.625-2.615,1.809
					c-1.634,3.887-3.278,7.77-4.959,11.636c-0.538,1.238-0.407,2.28,0.498,3.285c1.269,1.408,2.459,2.889,3.748,4.279
					c0.905,0.975,1.02,1.9,0.345,3.065c-4.751,8.196-11.643,13.831-20.432,17.236c-1.071,0.415-1.753-0.002-2.37-0.808
					c-1.351-1.762-2.714-3.516-4.078-5.268c-1.305-1.675-1.832-1.816-3.714-0.953c-3.734,1.712-7.465,3.432-11.191,5.163
					c-1.826,0.848-2.015,1.438-1.707,3.473c1.534,10.137,10.883,13.793,19.163,11.337c17.069-5.063,29.443-15.822,37.52-31.551
					c2.005-3.904,2.703-8.214,1.834-12.641c-0.782-3.981-3.146-6.94-6.189-9.427C408.732,169.459,407.321,169.616,405.964,169.75z"
					/>
			</g>
			<circle style="fill:#F45D85;" cx="368.404" cy="158.512" r="14.56"/>
		</g>
		<g>
			<g>
				<g>
					<g>
						<path style="fill:#413580;" d="M429.13,422.332c-0.829,0-1.685-0.048-2.57-0.147l0.441-3.975
							c9.405,1.043,13.711-4.889,14.311-9.132c0.277-1.959-0.119-4.369-2.149-4.719c-6.471-1.111-11.926,5.502-11.98,5.568
							l-3.111-2.514c0.28-0.349,6.967-8.518,15.769-6.996c3.873,0.666,6.106,4.458,5.433,9.22
							C444.341,416.217,438.56,422.332,429.13,422.332z"/>
					</g>
					<path style="fill:#7660E3;" d="M408.21,439.496L408.21,439.496c-11.885,0-21.52-9.635-21.52-21.52v-19.778h43.039v19.778
						C429.73,429.861,420.095,439.496,408.21,439.496z"/>
				</g>
				<path style="fill:#413580;" d="M435.085,436.941h-53.751l0,0c0,2.823,2.288,5.111,5.111,5.111h43.529
					C432.797,442.052,435.085,439.763,435.085,436.941L435.085,436.941z"/>
			</g>
			<g>
				<path style="fill:#FFFFFF;" d="M404.03,388.006c-0.176-1.383-1.089-2.295-2.163-3.085c-0.642-0.472-1.367-0.897-1.843-1.552
					c-0.648-0.891-0.57-1.958-0.286-2.972c0.515-1.839,1.755-3.351,2.333-5.169c0.485-1.525,0.398-3.057-0.233-4.522
					c-0.608-1.411-1.658-2.554-2.365-3.909c-1.57-3.013,1.935-4.816,2.983-7.317c0.82-1.955,0.176-3.835-0.516-5.716
					c-0.417-1.134-0.711-2.284-0.784-3.494c-0.07-1.16,0.166-2.271,0.288-3.418c0.084-0.785-1.01-0.924-1.376-0.373
					c-0.991,1.494-1.264,3.559-1.106,5.317c0.176,1.963,1.512,3.778,1.487,5.726c-0.019,1.486-1.283,2.598-2.15,3.677
					c-0.877,1.091-1.631,2.279-1.707,3.717c-0.076,1.43,0.533,2.752,1.307,3.917c0.806,1.213,2.037,2.462,2.359,3.92
					c0.418,1.896-0.895,3.814-1.617,5.479c-0.613,1.414-1.062,3.034-0.662,4.574c0.418,1.609,1.694,2.461,2.984,3.345
					c0.943,0.646,1.828,1.365,1.797,2.63c-0.031,1.272-0.762,2.463-1.401,3.518c-0.381,0.629,0.578,1.175,0.978,0.572
					C403.287,391.44,404.257,389.793,404.03,388.006z"/>
				<path style="fill:#FFFFFF;" d="M410.174,385.694c-0.195-0.844-0.62-1.536-1.123-2.229c-0.653-0.901-0.819-1.616-0.437-2.684
					c0.304-0.85,0.764-1.636,1.043-2.498c0.302-0.931,0.421-1.939,0.417-2.916c-0.007-1.896-0.186-4.427-1.312-6.012
					c-0.445-0.627-1.368-0.394-1.427,0.386c-0.073,0.969,0.244,1.851,0.451,2.786c0.219,0.99,0.421,2.003,0.419,3.021
					c-0.004,1.903-0.935,3.296-1.431,5.063c-0.454,1.615,0.05,2.755,1.03,4.013c1.177,1.51,1.553,3.37,0.647,5.118
					c-0.345,0.667,0.634,1.25,1.012,0.591C410.263,388.938,410.537,387.271,410.174,385.694z"/>
				<path style="fill:#FFFFFF;" d="M418.962,375.154c-0.816-1.381-2.029-2.413-2.086-4.123c-0.056-1.667,0.642-3.305,1.093-4.88
					c0.731-2.552,1.081-5.574-0.992-7.572c-0.534-0.515-1.565,0.193-1.074,0.828c2.148,2.781-0.282,6.214-1.015,9.03
					c-0.403,1.551-0.532,3.189,0.058,4.711c0.594,1.531,1.983,2.593,2.528,4.132c1.214,3.425-1.817,6.83-2.574,10.031
					c-0.604,2.554-0.1,5.44,2.213,6.967c0.692,0.456,1.302-0.632,0.643-1.1c-3.171-2.248-0.691-6.659,0.543-9.237
					C419.615,381.194,420.636,377.987,418.962,375.154z"/>
			</g>
		</g>
	</g>
</g>
</svg>
