<svg width="285.59873046875px" height="122px" xmlns="http://www.w3.org/2000/svg" viewBox="107.20063476562501 14 285.59873046875 122" style="background: rgba(0, 0, 0, 0);" preserveAspectRatio="xMidYMid"><defs><filter id="editing-hole" x="-100%" y="-100%" width="300%" height="300%"><feFlood flood-color="#000" result="black"></feFlood><feMorphology operator="dilate" radius="2" in="SourceGraphic" result="erode"></feMorphology><feGaussianBlur in="erode" stdDeviation="4" result="blur"></feGaussianBlur><feOffset in="blur" dx="2" dy="2" result="offset"></feOffset><feComposite operator="atop" in="offset" in2="black" result="merge"></feComposite><feComposite operator="in" in="merge" in2="SourceGraphic" result="inner-shadow"></feComposite></filter></defs><g filter="url(#editing-hole)"><g transform="translate(153.89698028564453, 103.41500091552734)"><path d="M17.92 3.84L17.92 3.84L17.92 3.84Q18.53 3.84 19.07 3.30L19.07 3.30L19.07 3.30Q19.61 2.76 20.07 1.64L20.07 1.64L20.07 1.64Q20.12 1.18 20.68 1.18L20.68 1.18L20.68 1.18Q21.25 1.18 21.12 1.64L21.12 1.64L21.12 1.64Q20.99 2.10 20.71 2.76L20.71 2.76L20.71 2.76Q20.43 3.43 19.53 4.53L19.53 4.53L19.53 4.53Q18.64 5.63 17.72 5.63L17.72 5.63L17.72 5.63Q15.67 5.63 14.54 3.07L14.54 3.07L14.54 3.07Q13.36 0.51 13.36-3.25L13.36-3.25L13.36-3.25Q13.36-7.01 13.93-11.01L13.93-11.01L13.47-11.01L13.47-11.01Q7.27-0.20 3.94-0.20L3.94-0.20L3.94-0.20Q0-0.20 0-6.22L0-6.22L0-6.22Q0-12.24 2.56-18.23L2.56-18.23L2.56-18.23Q5.38-24.83 7.53-24.83L7.53-24.83L7.53-24.83Q8.45-24.83 8.45-23.71L8.45-23.71L8.45-23.71Q6.30-18.02 4.76-12.65L4.76-12.65L4.76-12.65Q3.23-7.27 3.23-4.63L3.23-4.63L3.23-4.63Q3.23-2.00 4.45-2.00L4.45-2.00L4.45-2.00Q5.32-2.00 7.04-4.10L7.04-4.10L7.04-4.10Q8.76-6.20 10.55-9.22L10.55-9.22L10.55-9.22Q14.39-15.72 16.41-20.28L16.41-20.28L16.41-20.28Q18.43-24.83 20.58-24.83L20.58-24.83L20.58-24.83Q21.61-24.83 21.61-23.71L21.61-23.71L21.61-23.71Q18.33-17.20 16.95-8.19L16.95-8.19L16.95-8.19Q16.38-4.61 16.38-1.18L16.38-1.18L16.38-1.18Q16.38 3.84 17.92 3.84ZM40.60-14.69L40.60-14.69L40.60-14.69Q38.66-14.69 38.66-18.94L38.66-18.94L38.66-18.94Q38.66-21.35 39.58-23.45L39.58-23.45L39.58-23.45Q36.10-20.43 31.80-12.21L31.80-12.21L31.80-12.21Q27.49-3.99 27.49-1.48L27.49-1.48L27.49-1.48Q27.49-0.87 26.68-0.87L26.68-0.87L26.68-0.87Q25.19-0.87 25.19-4.92L25.19-4.92L25.19-4.92Q25.19-12.54 26.73-18.74L26.73-18.74L26.73-18.74Q28.26-24.93 30.46-24.93L30.46-24.93L30.46-24.93Q31.44-24.93 31.44-23.81L31.44-23.81L31.44-23.81Q29.08-16.33 28.06-8.50L28.06-8.50L28.42-8.50L28.42-8.50Q32.56-18.07 37.58-23.45L37.58-23.45L37.58-23.45Q40.45-26.52 42.80-26.52L42.80-26.52L42.80-26.52Q43.32-26.52 43.65-26.21L43.65-26.21L43.65-26.21Q43.98-25.91 43.98-25.45L43.98-25.45L43.98-25.45Q43.62-25.09 43.11-24.37L43.11-24.37L43.11-24.37Q42.60-23.65 41.73-20.97L41.73-20.97L41.73-20.97Q40.86-18.28 40.86-15.10L40.86-15.10L40.86-15.10Q40.86-14.69 40.60-14.69ZM43.37 17.20L43.37 17.20L43.37 17.20Q39.37 17.20 39.37 13.36L39.37 13.36L39.37 13.36Q39.37 9.98 42.83 5.40L42.83 5.40L42.83 5.40Q46.28 0.82 51.51-1.18L51.51-1.18L51.51-1.18Q51.76-1.28 52.02-1.05L52.02-1.05L52.02-1.05Q52.28-0.82 52.28-0.54L52.28-0.54L52.28-0.54Q52.28-0.26 51.97-0.10L51.97-0.10L51.97-0.10Q46.69 1.84 43.11 7.07L43.11 7.07L43.11 7.07Q40.70 10.65 40.70 12.95L40.70 12.95L40.70 12.95Q40.70 15.26 42.50 15.31L42.50 15.31L42.50 15.31Q46.75 15.31 51.76 9.47L51.76 9.47L51.76 9.47Q56.01 4.56 57.50-0.36L57.50-0.36L57.50-0.36Q58.01-2.05 58.01-3.17L58.01-3.17L58.01-3.17Q58.01-5.58 55.76-5.58L55.76-5.58L55.76-5.58Q54.02-5.58 51.51-4.43L51.51-4.43L51.51-4.43Q49.00-3.28 48.28-3.28L48.28-3.28L48.28-3.28Q47.10-3.28 46.80-5.02L46.80-5.02L46.69-5.63L46.69-5.63Q50.48-5.63 54.37-10.85L54.37-10.85L54.37-10.85Q57.65-15.36 58.37-19.61L58.37-19.61L58.37-19.61Q58.47-20.38 58.47-20.99L58.47-20.99L58.47-20.99Q58.47-23.45 56.47-23.50L56.47-23.50L56.47-23.50Q54.43-23.50 52.45-21.94L52.45-21.94L52.45-21.94Q50.48-20.38 49.23-18.36L49.23-18.36L49.23-18.36Q47.97-16.33 47.21-14.69L47.21-14.69L47.21-14.69Q46.44-13.06 46.44-12.70L46.44-12.70L46.44-12.70Q46.44-12.34 45.95-12.21L45.95-12.21L45.95-12.21Q45.47-12.08 44.98-12.34L44.98-12.34L44.98-12.34Q44.49-12.60 44.49-13.18L44.49-13.18L44.49-13.18Q44.49-13.77 45.47-15.59L45.47-15.59L45.47-15.59Q46.44-17.41 48-19.53L48-19.53L48-19.53Q49.56-21.66 51.94-23.30L51.94-23.30L51.94-23.30Q54.32-24.93 56.65-24.93L56.65-24.93L56.65-24.93Q58.98-24.93 60.26-23.40L60.26-23.40L60.26-23.40Q61.54-21.86 61.54-19.40L61.54-19.40L61.54-19.40Q61.54-12.80 54.78-6.86L54.78-6.86L54.78-6.86Q55.40-6.96 55.76-6.96L55.76-6.96L55.76-6.96Q60.57-6.96 60.57-1.64L60.57-1.64L60.57-1.64Q60.57 2.20 57.70 7.12L57.70 7.12L57.70 7.12Q54.17 13.11 49.05 15.77L49.05 15.77L49.05 15.77Q46.18 17.20 43.37 17.20ZM69.58 0L69.58 0L69.58 0Q65.38 0 65.38-6.60L65.38-6.60L65.38-6.60Q65.38-10.55 67.33-15.26L67.33-15.26L67.33-15.26Q70.04-21.86 74.44-24.27L74.44-24.27L74.44-24.27Q76.34-25.29 77.98-25.29L77.98-25.29L77.98-25.29Q79.62-25.29 80.56-24.58L80.56-24.58L80.56-24.58Q81.51-23.86 81.77-23.14L81.77-23.14L82.07-22.48L82.07-22.48Q81.92-21.61 81.20-21.61L81.20-21.61L81.20-21.61Q80.38-21.61 80.26-21.99L80.26-21.99L80.26-21.99Q80.13-22.37 79.97-22.66L79.97-22.66L79.97-22.66Q79.82-22.94 79.26-23.42L79.26-23.42L79.26-23.42Q78.69-23.91 77.98-23.91L77.98-23.91L77.98-23.91Q74.65-23.91 71.94-17.92L71.94-17.92L71.94-17.92Q68.86-11.01 68.86-4.92L68.86-4.92L68.86-4.92Q68.86-1.84 70.09-1.84L70.09-1.84L70.09-1.84Q71.07-1.84 72.83-4.02L72.83-4.02L72.83-4.02Q74.60-6.20 76.54-9.47L76.54-9.47L76.54-9.47Q79.92-15.10 82.02-19.25L82.02-19.25L82.02-19.25Q83.76-22.94 85.61-22.94L85.61-22.94L85.61-22.94Q86.58-22.94 86.58-21.76L86.58-21.76L86.58-21.76Q86.12-20.79 85.40-19.00L85.40-19.00L85.40-19.00Q84.68-17.20 83.51-11.88L83.51-11.88L83.51-11.88Q82.33-6.55 82.33-1.28L82.33-1.28L82.33-1.28Q82.33 3.99 83.92 3.99L83.92 3.99L83.92 3.99Q84.53 3.99 85.04 3.46L85.04 3.46L85.04 3.46Q85.56 2.92 85.96 1.84L85.96 1.84L85.96 1.84Q86.12 1.28 86.68 1.28L86.68 1.28L86.68 1.28Q86.89 1.28 86.99 1.43L86.99 1.43L86.99 1.43Q87.09 1.59 86.99 1.95L86.99 1.95L86.99 1.95Q86.89 2.30 86.63 2.94L86.63 2.94L86.63 2.94Q86.37 3.58 85.53 4.66L85.53 4.66L85.53 4.66Q84.68 5.73 83.76 5.73L83.76 5.73L83.76 5.73Q81.61 5.73 80.46 2.92L80.46 2.92L80.46 2.92Q79.31 0.10 79.31-3.74L79.31-3.74L79.31-3.74Q79.31-7.58 79.87-11.11L79.87-11.11L79.36-11.11L79.36-11.11Q72.86 0 69.58 0ZM99.12-14.85L99.12-14.85L99.12-14.85Q96.41-9.93 94.90-6.14L94.90-6.14L94.90-6.14Q93.39-2.36 93.39-1.66L93.39-1.66L93.39-1.66Q93.39-0.97 92.67-0.97L92.67-0.97L92.67-0.97Q91.14-0.97 91.14-5.07L91.14-5.07L91.14-5.07Q91.14-13.21 92.77-21.43L92.77-21.43L92.77-21.43Q94.41-29.64 96.67-34.59L96.67-34.59L96.67-34.59Q98.92-39.53 100.86-39.53L100.86-39.53L100.86-39.53Q101.68-39.53 101.68-38.71L101.68-38.71L101.68-38.71Q98.97-32.72 97.15-25.04L97.15-25.04L97.15-25.04Q95.33-17.36 94.11-8.65L94.11-8.65L94.46-8.65L94.46-8.65Q100.97-24.63 107.21-24.63L107.21-24.63L107.21-24.63Q109.82-24.63 109.82-22.12L109.82-22.12L109.82-22.12Q109.47-20.94 108.90-19.02L108.90-19.02L108.90-19.02Q108.34-17.10 107.42-12.13L107.42-12.13L107.42-12.13Q106.50-7.17 106.50-3.43L106.50-3.43L106.50-3.43Q106.50 2.00 108.08 2.00L108.08 2.00L108.08 2.00Q108.65 2.00 109.21 1.51L109.21 1.51L109.21 1.51Q109.77 1.02 109.98 1.02L109.98 1.02L109.98 1.02Q110.69 1.02 109.93 2.15L109.93 2.15L109.93 2.15Q109.72 2.51 109.03 3.12L109.03 3.12L109.03 3.12Q108.34 3.74 107.67 3.74L107.67 3.74L107.67 3.74Q105.68 3.74 104.58 0.95L104.58 0.95L104.58 0.95Q103.48-1.84 103.48-6.30L103.48-6.30L103.48-6.30Q103.48-13.82 105.73-21.81L105.73-21.81L105.73-21.81Q105.83-22.58 105.11-22.48L105.11-22.48L105.11-22.48Q104.76-22.43 104.40-22.07L104.40-22.07L104.40-22.07Q101.84-19.76 99.12-14.85ZM125.64-6.25L125.64-6.25L125.64-6.25Q125.64-12.54 127.95-22.17L127.95-22.17L127.95-22.17Q128.10-22.68 127.64-22.63L127.64-22.63L127.64-22.63Q127.28-22.58 126.98-22.32L126.98-22.32L126.98-22.32Q124.72-20.43 122.01-15.31L122.01-15.31L122.01-15.31Q119.30-10.19 117.66-5.96L117.66-5.96L117.66-5.96Q116.02-1.74 116.02-1.02L116.02-1.02L116.02-1.02Q116.02-0.41 115.25-0.41L115.25-0.41L115.25-0.41Q113.72-0.41 113.72-4.45L113.72-4.45L113.72-4.45Q113.72-12.13 115.25-18.30L115.25-18.30L115.25-18.30Q116.79-24.47 118.99-24.47L118.99-24.47L118.99-24.47Q119.96-24.47 119.96-23.40L119.96-23.40L119.96-23.40Q117.61-15.97 116.58-8.14L116.58-8.14L117.04-8.14L117.04-8.14Q123.80-25.04 129.48-25.04L129.48-25.04L129.48-25.04Q131.94-25.04 131.94-22.63L131.94-22.63L131.94-22.63Q129.54-15.46 128.46-8.50L128.46-8.50L128.87-8.50L128.87-8.50Q130.56-12.08 132.28-15.03L132.28-15.03L132.28-15.03Q133.99-17.97 136.29-20.51L136.29-20.51L136.29-20.51Q138.60-23.04 140.44-23.04L140.44-23.04L140.44-23.04Q142.90-23.04 142.90-20.68L142.90-20.68L142.90-20.68Q140.24-11.83 140.24-3.43L140.24-3.43L140.24-3.43Q140.24 2.00 141.88 2.00L141.88 2.00L141.88 2.00Q142.44 2.00 143.00 1.51L143.00 1.51L143.00 1.51Q143.56 1.02 143.77 1.02L143.77 1.02L143.77 1.02Q144.49 1.02 143.72 2.15L143.72 2.15L143.72 2.15Q143.51 2.51 142.82 3.12L142.82 3.12L142.82 3.12Q142.13 3.74 141.47 3.74L141.47 3.74L141.47 3.74Q139.47 3.74 138.37 0.95L138.37 0.95L138.37 0.95Q137.27-1.84 137.27-6.30L137.27-6.30L137.27-6.30Q137.27-14.13 138.91-20.07L138.91-20.07L138.91-20.07Q139.01-20.43 138.65-20.43L138.65-20.43L138.65-20.43Q138.34-20.38 138.04-20.12L138.04-20.12L138.04-20.12Q135.12-17.61 131.53-10.83L131.53-10.83L131.53-10.83Q127.95-4.04 127.95-2.82L127.95-2.82L127.95-2.82Q127.95-2.20 127.13-2.20L127.13-2.20L127.13-2.20Q125.64-2.20 125.64-6.25ZM160.51-24.83L160.51-24.83L160.51-24.83Q164.40-24.83 164.40-20.28L164.40-20.28L164.40-20.28Q164.40-17.66 162.66-14.80L162.66-14.80L162.66-14.80Q159.69-10.04 154.78-10.04L154.78-10.04L154.78-10.04Q154.01-10.04 153.50-10.29L153.50-10.29L153.50-10.29Q152.99-10.55 152.73-11.06L152.73-11.06L152.73-11.06Q156.36-11.06 159.39-15.26L159.39-15.26L159.39-15.26Q161.84-18.64 161.84-21.45L161.84-21.45L161.84-21.45Q161.84-23.55 160.15-23.55L160.15-23.55L160.15-23.55Q156.77-23.55 153.86-18.28L153.86-18.28L153.86-18.28Q150.73-12.54 150.73-6.50L150.73-6.50L150.73-6.50Q150.73-1.38 153.65-0.36L153.65-0.36L153.65-0.36Q154.21-0.15 155.08-0.15L155.08-0.15L155.08-0.15Q155.96-0.15 156.93-0.59L156.93-0.59L156.93-0.59Q157.90-1.02 158.57-1.64L158.57-1.64L158.57-1.64Q159.90-2.87 160.77-4.35L160.77-4.35L160.77-4.35Q160.97-4.76 161.54-4.76L161.54-4.76L161.54-4.76Q162.46-4.76 162.41-4.45L162.41-4.45L162.41-4.45Q162.25-3.89 161.25-2.56L161.25-2.56L161.25-2.56Q160.26-1.23 159.41-0.44L159.41-0.44L159.41-0.44Q158.57 0.36 157.21 1.00L157.21 1.00L157.21 1.00Q155.85 1.64 154.47 1.64L154.47 1.64L154.47 1.64Q149.04 1.64 147.56-3.48L147.56-3.48L147.56-3.48Q147.10-5.22 147.10-7.07L147.10-7.07L147.10-7.07Q147.10-10.50 148.68-14.54L148.68-14.54L148.68-14.54Q151.19-20.68 155.60-23.40L155.60-23.40L155.60-23.40Q158.00-24.83 160.51-24.83ZM171.37 0L171.37 0L171.37 0Q167.07 0 167.07-6.60L167.07-6.60L167.07-6.60Q167.07-10.44 169.01-15.05L169.01-15.05L169.01-15.05Q171.67-21.50 176.03-23.81L176.03-23.81L176.03-23.81Q177.92-24.83 179.46-24.83L179.46-24.83L179.46-24.83Q180.99-24.83 181.81-24.29L181.81-24.29L181.81-24.29Q182.63-23.76 182.89-23.19L182.89-23.19L183.14-22.63L183.14-22.63Q182.99-21.76 182.22-21.76L182.22-21.76L182.22-21.76Q181.45-21.76 181.12-22.60L181.12-22.60L181.12-22.60Q180.79-23.45 179.56-23.45L179.56-23.45L179.56-23.45Q176.23-23.45 173.62-17.56L173.62-17.56L173.62-17.56Q170.60-10.91 170.60-4.97L170.60-4.97L170.60-4.97Q170.60-1.84 171.88-1.84L171.88-1.84L171.88-1.84Q172.90-1.84 174.87-4.38L174.87-4.38L174.87-4.38Q176.84-6.91 178.94-10.55L178.94-10.55L178.94-10.55Q181.81-15.56 184.01-19.71L184.01-19.71L184.01-19.71Q185.86-27.70 188.49-33.66L188.49-33.66L188.49-33.66Q191.13-39.63 192.87-39.63L192.87-39.63L192.87-39.63Q193.74-39.63 193.74-38.76L193.74-38.76L193.74-38.76Q192.51-36.10 190.85-31.49L190.85-31.49L190.85-31.49Q189.18-26.88 188.03-22.71L188.03-22.71L188.03-22.71Q186.88-18.53 185.93-12.75L185.93-12.75L185.93-12.75Q184.99-6.96 184.99-1.84L184.99-1.84L184.99-1.84Q184.99 5.79 188.31 5.79L188.31 5.79L188.31 5.79Q189.59 5.79 190.69 4.68L190.69 4.68L190.69 4.68Q191.80 3.58 192.26 2.51L192.26 2.51L192.26 2.51Q192.51 1.95 193.18 2.20L193.18 2.20L193.18 2.20Q193.43 2.30 193.38 2.51L193.38 2.51L193.38 2.51Q193.08 3.17 192.61 4.04L192.61 4.04L192.61 4.04Q192.15 4.92 190.80 6.20L190.80 6.20L190.80 6.20Q189.44 7.48 188.06 7.48L188.06 7.48L188.06 7.48Q181.96 7.48 181.96-3.99L181.96-3.99L181.96-3.99Q181.96-8.04 182.68-12.65L182.68-12.65L182.02-12.65L182.02-12.65Q174.80 0 171.37 0Z" fill="#ccc"></path></g></g><style>text {
  font-size: 64px;
  font-family: Arial Black;
  dominant-baseline: central;
  text-anchor: middle;
}</style></svg>